<svg width="1599" viewBox="0 0 1599 1989" fill="none" aria-hidden="true">
  <path
    d="M372.422 1698.14C362.059 1659.47 385.01 1619.72 423.683 1609.36L1432.07 1339.16C1470.74 1328.8 1510.49 1351.75 1520.85 1390.42L1573.51 1586.94C1587.33 1638.51 1556.73 1691.51 1505.16 1705.33L636.829 1938C533.7 1965.63 427.695 1904.43 400.062 1801.3L372.422 1698.14Z"
    fill="#4F46E5"
  />
  <path
    d="M50.0958 495.174C22.4623 392.044 83.6641 286.04 186.794 258.407L229.747 246.897L615.5 1686.54L385.813 1748.09L50.0958 495.174Z"
    fill="#4F46E5"
  />
  <path
    d="M1355.1 1231.21L1469.94 1200.43L1535.61 1445.5C1552.6 1508.93 1514.96 1574.12 1451.54 1591.12L1355.1 1231.21Z"
    fill="#4338CA"
  />
  <path
    d="M1173.51 94.0916C1159.69 42.5268 1106.69 11.9261 1055.12 25.7428L208.266 252.657C156.701 266.474 126.101 319.476 139.917 371.041L500.652 1717.32L957.461 1594.92C990.59 1586.04 1010.25 1551.99 1001.37 1518.86C992.496 1485.73 1012.16 1451.68 1045.29 1442.8L1408.73 1345.42C1460.29 1331.6 1490.89 1278.6 1477.08 1227.04L1173.51 94.0916Z"
    fill="#6366F1"
  />
  <path
    d="M865.113 418.14C867.378 389.392 904.51 379.443 920.845 403.207L945.656 439.299C950.713 446.656 958.73 451.438 967.606 452.392L1013.66 457.342C1041.48 460.331 1051.03 495.993 1028.44 512.49L991.028 539.804C983.818 545.069 979.266 553.219 978.565 562.119L975.125 605.78C972.86 634.528 935.728 644.478 919.393 620.714L894.583 584.622C889.525 577.265 881.508 572.483 872.632 571.529L826.576 566.579C798.76 563.589 789.205 527.927 811.799 511.431L849.21 484.116C856.42 478.852 860.972 470.702 861.673 461.802L865.113 418.14Z"
    fill="#312E81"
  />
  <path
    d="M699.719 719.627C701.984 690.879 739.116 680.93 755.451 704.693L834.743 820.042C839.8 827.399 847.818 832.181 856.694 833.135L995.257 848.027C1023.07 851.016 1032.63 886.678 1010.03 903.175L897.481 985.353C890.271 990.618 885.719 998.768 885.017 1007.67L874.023 1147.21C871.758 1175.96 834.626 1185.91 818.291 1162.14L738.999 1046.79C733.942 1039.44 725.924 1034.65 717.048 1033.7L578.485 1018.81C550.669 1015.82 541.114 980.157 563.708 963.66L676.261 881.482C683.471 876.217 688.023 868.067 688.725 859.168L699.719 719.627Z"
    fill="#312E81"
  />
  <path
    d="M500.657 1717.32C482.903 1651.07 522.223 1582.96 588.481 1565.21L1387.26 1351.18L1451.55 1591.12L652.773 1805.15C586.516 1822.9 518.411 1783.58 500.657 1717.32Z"
    fill="#EEF2FF"
  />
</svg>